<svg xmlns="http://www.w3.org/2000/svg" width="780" height="860" viewBox="0 0 780 860" role="img"><title>太陽光と蓄電池は高いから無理、と決める前に。東京都の戸建て持ち家向け、うちの補助金はいくら？無料の個別レポートで補助金・設置容量・年間発電量の目安を確認。</title><g font-family="Hiragino Kaku Gothic ProN,Meiryo,sans-serif"><defs><linearGradient id="bg" x2="0.9" y2="1"><stop stop-color="#fcf7e6"/><stop offset="1" stop-color="#e4f2e9"/></linearGradient></defs>
<rect width="780" height="860" fill="url(#bg)"/>
<rect x="40" y="32" width="535" height="52" rx="26" fill="#145d49"/><text x="307" y="67" text-anchor="middle" font-size="27" fill="white" font-weight="700">東京都の戸建て持ち家の方へ</text>
<text x="44" y="148" font-size="33" fill="#245348" font-weight="700">太陽光＋蓄電池</text>
<text x="40" y="219" font-size="57" fill="#193d34" font-weight="800">「高いから無理」</text>
<text x="44" y="277" font-size="38" fill="#193d34" font-weight="700">と、決める前に。</text>
<rect x="40" y="307" width="700" height="91" rx="14" fill="#ffe492"/>
<text x="390" y="371" text-anchor="middle" font-size="58" fill="#145d49" font-weight="800">うちの補助金、いくら？</text>
<circle cx="640" cy="472" r="36" fill="#f2bb51"/><path d="M631 424v-14M631 527v14M592 472h-15M688 472h16" stroke="#f2bb51" stroke-width="7"/>
<path d="M63 543L228 442l164 101v127H63Z" fill="white" stroke="#235647" stroke-width="5"/><path d="M39 543L228 425l189 118" fill="none" stroke="#235647" stroke-width="14" stroke-linejoin="round"/>
<path d="M111 500l107-64 106 66-106 25Z" fill="#294c67"/><path d="M144 480l105 36m-72-55 106 42m-95-50-23 60m65-53-16 59m54-36-10 24" stroke="#8fa9c1" stroke-width="3"/>
<rect x="105" y="557" width="65" height="61" rx="4" fill="#c9e4de"/><path d="M137 557v61m-32-30h65" stroke="white" stroke-width="4"/><rect x="251" y="553" width="57" height="117" rx="4" fill="#e9d9b4"/>
<rect x="351" y="572" width="64" height="105" rx="9" fill="#f8fbf8" stroke="#235647" stroke-width="4"/><rect x="362" y="584" width="42" height="8" rx="4" fill="#9ebbac"/><path d="m386 602-15 24h13l-7 24 19-29h-14Z" fill="#e9b53f"/><path d="M363 663h40" stroke="#9ebbac" stroke-width="3"/>
<rect x="433" y="430" width="281" height="248" rx="18" fill="white" stroke="#c5dace" stroke-width="4"/>
<rect x="455" y="451" width="237" height="42" rx="7" fill="#e6f1eb"/><text x="574" y="480" font-size="23" text-anchor="middle" fill="#235647" font-weight="700">自宅の個別レポート</text>
<text x="456" y="533" font-size="25" fill="#234c40">✓ 補助金の目安</text><text x="456" y="580" font-size="25" fill="#234c40">✓ 屋根の設置容量</text><text x="456" y="627" font-size="25" fill="#234c40">✓ 年間発電量の目安</text>
<rect x="40" y="708" width="700" height="113" rx="18" fill="#145d49"/>
<text x="390" y="755" text-anchor="middle" font-size="35" fill="white" font-weight="800">まずは、無料レポートから。</text><text x="390" y="795" text-anchor="middle" font-size="26" fill="#e5f2df">自宅の数字を見てから、家族で検討</text></g></svg>
